<svg width="58" height="41" viewBox="0 0 58 41" fill="none" xmlns="http://www.w3.org/2000/svg">
<path d="M5.83333 40.8333C4.22917 40.8333 2.85639 40.2626 1.715 39.1213C0.571667 37.9779 0 36.6042 0 35V5.83333C0 4.22917 0.571667 2.85639 1.715 1.715C2.85639 0.571666 4.22917 0 5.83333 0H52.5C54.1042 0 55.4779 0.571666 56.6212 1.715C57.7626 2.85639 58.3333 4.22917 58.3333 5.83333V35C58.3333 36.6042 57.7626 37.9779 56.6212 39.1213C55.4779 40.2626 54.1042 40.8333 52.5 40.8333H5.83333ZM17.5 32.0833H40.8333V26.25H17.5V32.0833ZM8.75 23.3333H14.5833V17.5H8.75V23.3333ZM17.5 23.3333H23.3333V17.5H17.5V23.3333ZM26.25 23.3333H32.0833V17.5H26.25V23.3333ZM35 23.3333H40.8333V17.5H35V23.3333ZM43.75 23.3333H49.5833V17.5H43.75V23.3333ZM8.75 14.5833H14.5833V8.75H8.75V14.5833ZM17.5 14.5833H23.3333V8.75H17.5V14.5833ZM26.25 14.5833H32.0833V8.75H26.25V14.5833ZM35 14.5833H40.8333V8.75H35V14.5833ZM43.75 14.5833H49.5833V8.75H43.75V14.5833Z" fill="#598BFF"/>
</svg>
